<svg width="27" height="15" viewBox="0 0 27 15" fill="none" xmlns="http://www.w3.org/2000/svg">
<path  d="M18.0035 3C17.1738 3 16.5035 2.32969 16.5035 1.5C16.5035 0.670312 17.1738 0 18.0035 0H25.5035C26.3332 0 27.0035 0.670312 27.0035 1.5V9C27.0035 9.82969 26.3332 10.5 25.5035 10.5C24.6738 10.5 24.0035 9.82969 24.0035 9V5.12344L16.0629 13.0594C15.477 13.6453 14.5254 13.6453 13.9395 13.0594L9.00352 8.12344L2.56289 14.5594C1.97695 15.1453 1.02539 15.1453 0.439453 14.5594C-0.146484 13.9734 -0.146484 13.0219 0.439453 12.4359L7.93945 4.93594C8.52539 4.35 9.47695 4.35 10.0629 4.93594L15.0035 9.87656L21.8801 3H18.0035Z" fill="#6699FF"/>
</svg>
