<svg width="27" height="15" viewBox="0 0 27 15" fill="none" xmlns="http://www.w3.org/2000/svg">
<path d="M18.0035 11.9988C17.1738 11.9988 16.5035 12.6691 16.5035 13.4988C16.5035 14.3285 17.1738 14.9988 18.0035 14.9988H25.5035C26.3332 14.9988 27.0035 14.3285 27.0035 13.4988V5.99883C27.0035 5.16914 26.3332 4.49883 25.5035 4.49883C24.6738 4.49883 24.0035 5.16914 24.0035 5.99883V9.87539L16.0629 1.93945C15.477 1.35352 14.5254 1.35352 13.9395 1.93945L9.00352 6.87539L2.56289 0.439453C1.97695 -0.146484 1.02539 -0.146484 0.439453 0.439453C-0.146484 1.02539 -0.146484 1.97695 0.439453 2.56289L7.93945 10.0629C8.52539 10.6488 9.47695 10.6488 10.0629 10.0629L15.0035 5.12227L21.8801 11.9988H18.0035Z" fill="#FF6666"/>
</svg>
