<svg width="32" height="17" viewBox="0 0 32 17" fill="none" xmlns="http://www.w3.org/2000/svg">
<path d="M4.8 1.21429C4.8 0.542634 5.515 0 6.4 0H8C8.885 0 9.6 0.542634 9.6 1.21429V7.28571V9.71429V15.7857C9.6 16.4574 8.885 17 8 17H6.4C5.515 17 4.8 16.4574 4.8 15.7857V13.3571H3.2C2.315 13.3571 1.6 12.8145 1.6 12.1429V9.71429C0.715 9.71429 0 9.17165 0 8.5C0 7.82835 0.715 7.28571 1.6 7.28571V4.85714C1.6 4.18549 2.315 3.64286 3.2 3.64286H4.8V1.21429ZM27.2 1.21429V3.64286H28.8C29.685 3.64286 30.4 4.18549 30.4 4.85714V7.28571C31.285 7.28571 32 7.82835 32 8.5C32 9.17165 31.285 9.71429 30.4 9.71429V12.1429C30.4 12.8145 29.685 13.3571 28.8 13.3571H27.2V15.7857C27.2 16.4574 26.485 17 25.6 17H24C23.115 17 22.4 16.4574 22.4 15.7857V9.71429V7.28571V1.21429C22.4 0.542634 23.115 0 24 0H25.6C26.485 0 27.2 0.542634 27.2 1.21429ZM20.8 7.28571V9.71429H11.2V7.28571H20.8Z" fill="#374151"/>
</svg>
