<svg width="35" height="19" viewBox="0 0 35 19" fill="none" xmlns="http://www.w3.org/2000/svg">
<path d="M5.25 1.35714C5.25 0.606473 6.03203 0 7 0H8.75C9.71797 0 10.5 0.606473 10.5 1.35714V8.14286V10.8571V17.6429C10.5 18.3935 9.71797 19 8.75 19H7C6.03203 19 5.25 18.3935 5.25 17.6429V14.9286H3.5C2.53203 14.9286 1.75 14.3221 1.75 13.5714V10.8571C0.782031 10.8571 0 10.2507 0 9.5C0 8.74933 0.782031 8.14286 1.75 8.14286V5.42857C1.75 4.6779 2.53203 4.07143 3.5 4.07143H5.25V1.35714ZM29.75 1.35714V4.07143H31.5C32.468 4.07143 33.25 4.6779 33.25 5.42857V8.14286C34.218 8.14286 35 8.74933 35 9.5C35 10.2507 34.218 10.8571 33.25 10.8571V13.5714C33.25 14.3221 32.468 14.9286 31.5 14.9286H29.75V17.6429C29.75 18.3935 28.968 19 28 19H26.25C25.282 19 24.5 18.3935 24.5 17.6429V10.8571V8.14286V1.35714C24.5 0.606473 25.282 0 26.25 0H28C28.968 0 29.75 0.606473 29.75 1.35714ZM22.75 8.14286V10.8571H12.25V8.14286H22.75Z" fill="white"/>
</svg>
