<svg width="22" height="13" viewBox="0 0 22 13" fill="none" xmlns="http://www.w3.org/2000/svg">
<path d="M3.3 0.928571C3.3 0.414955 3.79156 0 4.4 0H5.5C6.10844 0 6.6 0.414955 6.6 0.928571V5.57143V7.42857V12.0714C6.6 12.585 6.10844 13 5.5 13H4.4C3.79156 13 3.3 12.585 3.3 12.0714V10.2143H2.2C1.59156 10.2143 1.1 9.79933 1.1 9.28571V7.42857C0.491562 7.42857 0 7.01362 0 6.5C0 5.98638 0.491562 5.57143 1.1 5.57143V3.71429C1.1 3.20067 1.59156 2.78571 2.2 2.78571H3.3V0.928571ZM18.7 0.928571V2.78571H19.8C20.4084 2.78571 20.9 3.20067 20.9 3.71429V5.57143C21.5084 5.57143 22 5.98638 22 6.5C22 7.01362 21.5084 7.42857 20.9 7.42857V9.28571C20.9 9.79933 20.4084 10.2143 19.8 10.2143H18.7V12.0714C18.7 12.585 18.2084 13 17.6 13H16.5C15.8916 13 15.4 12.585 15.4 12.0714V7.42857V5.57143V0.928571C15.4 0.414955 15.8916 0 16.5 0H17.6C18.2084 0 18.7 0.414955 18.7 0.928571ZM14.3 5.57143V7.42857H7.7V5.57143H14.3Z" fill="#FF6666"/>
</svg>
