<svg width="17" height="16" viewBox="0 0 17 16" fill="none" xmlns="http://www.w3.org/2000/svg">
<path d="M3.23438 2.34375L2.17188 1.28125C1.7 0.809375 0.890625 1.14375 0.890625 1.80938V5.25C0.890625 5.66563 1.225 6 1.64062 6H5.08125C5.75 6 6.08438 5.19063 5.6125 4.71875L4.65 3.75625C5.73438 2.67188 7.23438 2 8.89062 2C12.2031 2 14.8906 4.6875 14.8906 8C14.8906 11.3125 12.2031 14 8.89062 14C7.61562 14 6.43438 13.6031 5.4625 12.925C5.00938 12.6094 4.3875 12.7188 4.06875 13.1719C3.75 13.625 3.8625 14.2469 4.31562 14.5656C5.61562 15.4688 7.19375 16 8.89062 16C13.3094 16 16.8906 12.4187 16.8906 8C16.8906 3.58125 13.3094 0 8.89062 0C6.68125 0 4.68125 0.896875 3.23438 2.34375ZM8.89062 4C8.475 4 8.14062 4.33437 8.14062 4.75V8C8.14062 8.2 8.21875 8.39062 8.35938 8.53125L10.6094 10.7812C10.9031 11.075 11.3781 11.075 11.6687 10.7812C11.9594 10.4875 11.9625 10.0125 11.6687 9.72188L9.6375 7.69063V4.75C9.6375 4.33437 9.30312 4 8.8875 4H8.89062Z" fill="white"/>
</svg>
