<svg width="25" height="25" viewBox="0 0 25 25" fill="none" xmlns="http://www.w3.org/2000/svg">
<path d="M8.98438 0C10.4932 0 11.7188 1.22559 11.7188 2.73438V22.2656C11.7188 23.7744 10.4932 25 8.98438 25C7.57324 25 6.41113 23.9307 6.26465 22.5537C6.01074 22.6221 5.74219 22.6562 5.46875 22.6562C3.74512 22.6562 2.34375 21.2549 2.34375 19.5312C2.34375 19.1699 2.40723 18.8184 2.51953 18.4961C1.04492 17.9395 0 16.5137 0 14.8438C0 13.2861 0.913086 11.9385 2.23633 11.3135C1.81152 10.7812 1.5625 10.1074 1.5625 9.375C1.5625 7.87598 2.61719 6.62598 4.02344 6.31836C3.94531 6.0498 3.90625 5.76172 3.90625 5.46875C3.90625 4.00879 4.91211 2.77832 6.26465 2.43652C6.41113 1.06934 7.57324 0 8.98438 0ZM16.0156 0C17.4268 0 18.584 1.06934 18.7354 2.43652C20.0928 2.77832 21.0938 4.00391 21.0938 5.46875C21.0938 5.76172 21.0547 6.0498 20.9766 6.31836C22.3828 6.62109 23.4375 7.87598 23.4375 9.375C23.4375 10.1074 23.1885 10.7812 22.7637 11.3135C24.0869 11.9385 25 13.2861 25 14.8438C25 16.5137 23.9551 17.9395 22.4805 18.4961C22.5928 18.8184 22.6562 19.1699 22.6562 19.5312C22.6562 21.2549 21.2549 22.6562 19.5312 22.6562C19.2578 22.6562 18.9893 22.6221 18.7354 22.5537C18.5889 23.9307 17.4268 25 16.0156 25C14.5068 25 13.2812 23.7744 13.2812 22.2656V2.73438C13.2812 1.22559 14.5068 0 16.0156 0Z" fill="white"/>
</svg>
